<?xml version="1.0" encoding="utf-8"?>
<!DOCTYPE svg PUBLIC "-//W3C//DTD SVG 1.0//EN" "http://www.w3.org/TR/2001/REC-SVG-20010904/DTD/svg10.dtd">
<svg version="1.0" xmlns="http://www.w3.org/2000/svg" width="512px" height="513px" viewBox="0 0 512 513" preserveAspectRatio="xMidYMid meet">
 <g fill="#0c0b0e">
  <path d="M1.2 242.3 c0.6 -13 2.1 -26.9 3 -27.9 0.2 -0.2 33.1 -0.4 73.1 -0.6 l72.7 -0.3 0 3.5 c0 1.9 0.9 8.9 2.1 15.5 1.1 6.6 2.3 14.8 2.6 18.3 l0.5 6.2 -77.3 0 -77.4 0 0.7 -14.7z"/>
  <path d="M313.2 253.3 c0.9 -7 6.6 -26.7 9.8 -34 3.1 -7 3.4 -7.3 6.6 -7.3 1.9 0 3.4 0.5 3.4 1 0 0.7 29.8 1 87.4 1 l87.4 0 0.6 2.7 c1.2 6.9 1.9 13.8 2.5 26.6 l0.6 13.7 -99.4 0 -99.3 0 0.4 -3.7z"/>
  <path d="M332 204.5 c0 -3.3 0.2 -3.5 3.5 -3.5 3.3 0 3.5 0.2 3.5 3.5 0 3.3 -0.2 3.5 -3.5 3.5 -3.3 0 -3.5 -0.2 -3.5 -3.5z"/>
  <path d="M142 200.5 c0 -3.3 0.2 -3.5 3.5 -3.5 3.3 0 3.5 0.2 3.5 3.5 0 3.3 -0.2 3.5 -3.5 3.5 -3.3 0 -3.5 -0.2 -3.5 -3.5z"/>
  <path d="M348 171.5 c0 -3.3 0.2 -3.5 3.5 -3.5 3.3 0 3.5 0.2 3.5 3.5 0 3.3 -0.2 3.5 -3.5 3.5 -3.3 0 -3.5 -0.2 -3.5 -3.5z"/>
 </g>
 <g fill="#170c0d">
  <path d="M5.6 307.3 c-2.4 -7.7 -6.1 -48.1 -4.8 -52 0.3 -1 16.4 -1.3 75.9 -1.3 l75.6 0 -0.6 -3.2 c-1.6 -8.6 -4.7 -27.4 -4.7 -28.5 0 -0.7 0.8 -1.3 1.8 -1.3 1.5 0 2 1.5 3 9.3 3.8 27.8 13.6 50.8 24.9 58.4 5.7 3.8 11.3 5.2 20.6 5.3 l6.7 0 0 7.5 0 7.5 -98.9 0 c-93.4 0 -99 -0.1 -99.5 -1.7z"/>
  <path d="M308 282.2 l0 -26.8 3 -2.2 c3.4 -2.6 6.5 -2.9 5.6 -0.7 -0.5 1.3 10.7 1.5 96.8 1.5 63.8 0 97.5 0.3 97.8 1 1.3 3.9 -2.5 44.7 -4.8 52.3 -0.5 1.6 -6.1 1.7 -99.5 1.7 l-98.9 0 0 -26.8z"/>
  <path d="M315 247.4 c0 -4.1 4.1 -20.4 5.1 -20.4 0.5 0 0.9 -1.1 0.9 -2.5 0 -2 0.5 -2.5 2.5 -2.5 l2.4 0 -2.3 6.3 c-1.3 3.4 -3.1 9.7 -4.1 14 -1.1 5.1 -2.2 7.7 -3.1 7.7 -0.8 0 -1.4 -1 -1.4 -2.6z"/>
  <path d="M146.9 218.3 c-0.1 -0.5 -0.1 -1.1 -0.1 -1.4 0.1 -0.4 -0.8 -0.5 -1.8 -0.2 -1.6 0.4 -2 0 -2 -2.1 0 -2.3 0.4 -2.6 3.5 -2.6 3.3 0 3.5 0.2 3.5 3.5 0 2.4 -0.5 3.5 -1.5 3.5 -0.8 0 -1.6 -0.3 -1.6 -0.7z"/>
  <path d="M327 214.1 c0 -4.9 0.9 -6.1 4.6 -6.1 3.1 0 3.4 0.3 3.4 2.9 0 4.9 -0.9 6.1 -4.6 6.1 -3.1 0 -3.4 -0.3 -3.4 -2.9z"/>
  <path d="M333 202.5 c0 -3.3 0.2 -3.5 3.5 -3.5 3.3 0 3.5 0.2 3.5 3.5 0 3.3 -0.2 3.5 -3.5 3.5 -3.3 0 -3.5 -0.2 -3.5 -3.5z"/>
  <path d="M142 198 l0 -5 3.5 0 3.5 0 0 5 0 5 -3.5 0 -3.5 0 0 -5z"/>
  <path d="M142 167.5 c0 -3.3 0.2 -3.5 3.5 -3.5 3.3 0 3.5 0.2 3.5 3.5 0 3.3 -0.2 3.5 -3.5 3.5 -3.3 0 -3.5 -0.2 -3.5 -3.5z"/>
  <path d="M351 162.5 c0 -3.3 0.2 -3.5 3.5 -3.5 3.3 0 3.5 0.2 3.5 3.5 0 3.3 -0.2 3.5 -3.5 3.5 -3.3 0 -3.5 -0.2 -3.5 -3.5z"/>
  <path d="M353.5 131.5 c-0.4 -3 -1.1 -5.5 -1.6 -5.5 -0.5 0 -0.9 -1.6 -0.9 -3.5 0 -3.3 0.2 -3.5 3.5 -3.5 3.2 0 3.5 0.3 3.5 2.9 0 1.6 0.4 3.1 1 3.3 0.5 0.2 1.2 2.9 1.6 6.1 l0.7 5.7 -3.6 0 -3.6 0 -0.6 -5.5z"/>
  <path d="M335.6 97.8 c-0.3 -1.3 -0.6 -3.5 -0.6 -5 0 -2.5 0.4 -2.8 3.4 -2.8 3.6 0 4.6 1.5 4.6 7.3 0 2.4 -0.4 2.7 -3.4 2.7 -2.6 0 -3.5 -0.5 -4 -2.2z"/>
  <path d="M221 55.5 c0 -3.3 0.2 -3.5 3.5 -3.5 3.3 0 3.5 0.2 3.5 3.5 0 3.3 -0.2 3.5 -3.5 3.5 -3.3 0 -3.5 -0.2 -3.5 -3.5z"/>
  <path d="M238 52.5 c0 -3.3 0.2 -3.5 3.5 -3.5 3.3 0 3.5 0.2 3.5 3.5 0 3.3 -0.2 3.5 -3.5 3.5 -3.3 0 -3.5 -0.2 -3.5 -3.5z"/>
 </g>
 <g fill="#0b1216">
  <path d="M146.9 219.3 c-0.1 -1 -0.1 -2.5 0 -3.3 0 -1 -0.1 -1.1 -0.5 -0.2 -0.4 0.9 -15.7 1.2 -71.5 1.2 l-70.9 0 0 -2.2 c0 -2.3 2.9 -16.1 5 -23.7 l1.1 -4.1 68.8 0 68.9 0 0.6 10.8 c0.4 5.9 0.9 13.5 1.2 17 0.5 5.3 0.4 6.2 -1 6.2 -0.9 0 -1.7 -0.8 -1.7 -1.7z"/>
  <path d="M326 217.5 c-0.1 -3.6 16.8 -37.4 18.8 -37.5 0.7 0 1.2 -1.4 1.2 -3.5 0 -3.3 0.2 -3.5 3.5 -3.5 3.3 0 3.5 0.2 3.5 3.5 0 2.4 -0.5 3.5 -1.5 3.5 -1 0 -1.5 1.1 -1.5 3.5 l0 3.5 76 0 75.9 0 1.1 4.1 c2.1 7.6 5 21.4 5 23.7 l0 2.2 -89.6 0 c-84.2 0 -89.8 0.1 -91 1.8 -1.2 1.5 -1.3 1.4 -1.4 -1.3z"/>
  <path d="M354 149.5 c0 -3.3 0.2 -3.5 3.5 -3.5 3.3 0 3.5 0.2 3.5 3.5 0 3.3 -0.2 3.5 -3.5 3.5 -3.3 0 -3.5 -0.2 -3.5 -3.5z"/>
  <path d="M131 137.5 c0 -3.3 0.2 -3.5 3.5 -3.5 3.3 0 3.5 0.2 3.5 3.5 0 3.3 -0.2 3.5 -3.5 3.5 -3.3 0 -3.5 -0.2 -3.5 -3.5z"/>
  <path d="M348 118.5 c0 -0.8 -0.4 -1.5 -1 -1.5 -0.5 0 -1 -1.6 -1 -3.5 0 -3.3 0.2 -3.5 3.5 -3.5 2.4 0 3.5 0.5 3.5 1.5 0 0.8 0.5 1.5 1 1.5 0.6 0 1 1.6 1 3.5 0 3.3 -0.2 3.5 -3.5 3.5 -2.4 0 -3.5 -0.5 -3.5 -1.5z"/>
 </g>
 <g fill="#270c0d">
  <path d="M67.4 428.8 c-2.8 -3 -3 -3.6 -2.1 -6.3 0.5 -1.6 1.3 -3.2 1.7 -3.5 0.4 -0.3 1 -2.3 1.3 -4.5 0.4 -2.2 1.1 -4.1 1.7 -4.3 0.5 -0.2 1 -1.4 1 -2.7 0 -1.3 0.6 -3 1.3 -3.7 0.8 -0.7 1.7 -2.6 2.1 -4.1 0.3 -1.5 1.3 -2.7 2 -2.7 0.8 0 1.6 -1 1.8 -2.2 0.2 -1.7 1.1 -2.4 3.1 -2.6 2 -0.3 2.7 -0.9 2.7 -2.6 0 -2.8 1.8 -4.6 4.7 -4.6 1.6 0 2.3 -0.6 2.3 -2 0 -1.1 0.6 -2 1.4 -2 0.8 0 1.6 -0.7 2 -1.5 0.3 -0.8 1.2 -1.5 2.1 -1.5 0.8 0 1.5 -0.4 1.5 -0.8 0 -0.5 1.7 -1.7 3.7 -2.8 2.1 -1 4.4 -2.5 5.1 -3.1 0.7 -0.7 2 -1.3 2.8 -1.3 0.8 0 1.4 -0.4 1.4 -1 0 -0.7 -14.9 -1 -42.6 -1 l-42.5 0 -3.5 -7.6 c-5 -11.1 -10.1 -26.1 -13.9 -40.9 l-3.3 -13 97.9 -0.3 97.9 -0.2 0 -4.5 c0 -3.8 -0.3 -4.5 -2 -4.5 -1.3 0 -2 -0.7 -2 -2 0 -1.6 0.7 -2 3.3 -2 9.8 -0.1 34 -7.2 49.3 -14.5 5.1 -2.5 10.5 -4.5 11.9 -4.5 2.2 0 2.5 0.4 2.5 3.3 0 2.8 -1.3 4.5 -8.7 11.8 -4.9 4.8 -11.2 10.5 -14.1 12.8 -11.9 9.1 -26.9 15.7 -39 17.1 -10.2 1.1 -20.5 6.3 -28.3 14.1 -3.2 3.3 -6.1 6.9 -6.4 8 -0.6 1.7 -1.4 2 -5.1 1.8 -3.5 -0.2 -4.9 0.2 -7 2.2 -3.3 3 -6.4 9 -6.4 12.3 0 1.7 -0.7 2.7 -2.2 3.2 -3.6 1.1 -31.1 14.8 -32.6 16.2 -0.7 0.6 -2 1.2 -2.8 1.2 -0.8 0 -1.4 0.4 -1.4 0.8 0 0.5 -1.7 1.7 -3.7 2.8 -2.1 1 -4.2 2.5 -4.6 3.2 -0.4 0.6 -1.5 1.2 -2.2 1.2 -0.8 0 -1.5 0.5 -1.5 1 0 0.6 -1.1 1 -2.5 1 -1.7 0 -2.5 0.5 -2.5 1.8 0 2.5 -1.9 4.2 -4.7 4.2 -1.8 0 -2.3 0.6 -2.3 2.6 0 1.7 -0.6 2.8 -2 3.1 -1.1 0.3 -2 1.3 -2 2.3 0 1 -0.7 2.5 -1.5 3.4 -0.8 0.8 -1.5 2.1 -1.5 3 0 0.8 -0.6 2.1 -1.3 2.8 -0.8 0.7 -1.7 3 -2.1 5.1 -0.4 2 -1.1 3.7 -1.6 3.7 -0.6 0 -1 1.2 -1.1 2.8 0 1.5 -0.6 4.2 -1.2 6 l-1.2 3.3 -3.1 -3.3z"/>
  <path d="M438 419.5 c0 -3.3 0.2 -3.5 3.5 -3.5 3.3 0 3.5 0.2 3.5 3.5 0 3.3 -0.2 3.5 -3.5 3.5 -3.3 0 -3.5 -0.2 -3.5 -3.5z"/>
  <path d="M435 411.5 c0 -2.4 -0.5 -3.5 -1.5 -3.5 -0.8 0 -1.7 -1.1 -2.1 -2.5 -0.3 -1.4 -1 -2.5 -1.5 -2.5 -0.5 0 -0.9 -0.9 -0.9 -2 0 -1.1 -0.6 -2 -1.3 -2 -1.6 0 -8.7 -7.2 -8.7 -8.8 0 -0.7 -0.9 -1.2 -2 -1.2 -1.1 0 -2.3 -0.7 -2.6 -1.5 -0.4 -0.8 -1.2 -1.5 -2 -1.5 -0.8 0 -1.4 -0.4 -1.4 -1 0 -0.5 -0.6 -1 -1.3 -1 -0.7 0 -2.3 -0.9 -3.5 -2 -1.2 -1.1 -2.6 -2 -3.2 -2 -0.5 0 -1 -0.4 -1 -0.9 0 -0.5 -1.1 -1.2 -2.4 -1.5 -1.4 -0.3 -3.1 -1.2 -3.8 -1.9 -0.7 -0.6 -8 -4.5 -16.3 -8.5 -14.1 -6.8 -15 -7.5 -15.6 -10.5 -1.2 -6.9 -5.7 -11.6 -12.1 -12.4 -3.5 -0.5 -5.6 -1.8 -10.8 -6.5 -8.8 -8 -17 -11.9 -26 -12.6 l-7 -0.5 0 -14.8 c0 -12.6 0.2 -14.9 1.5 -14.9 1.6 0 1.9 1.4 1.6 7.2 l-0.3 3.8 98 0.2 98 0.3 -3.3 13 c-3.8 14.8 -8.9 29.8 -13.9 40.9 l-3.5 7.6 -43.8 0.1 c-40.6 0 -43.5 0.1 -40 1.6 2 0.8 3.7 1.9 3.7 2.4 0 0.5 0.7 0.9 1.5 0.9 0.8 0 1.5 0.5 1.5 1 0 0.6 0.7 1 1.5 1 0.8 0 2.4 0.9 3.5 2 1.1 1.1 2.5 2 3 2 0.6 0 1 0.4 1 0.9 0 0.5 0.9 1.1 2 1.4 1.1 0.3 2 1.2 2 2.1 0 0.9 0.8 1.6 1.8 1.6 2.3 0 9.2 7 9.2 9.3 0 0.9 0.7 1.7 1.5 1.7 0.8 0 1.5 0.5 1.5 1.1 0 0.6 0.7 1.7 1.5 2.5 0.8 0.9 1.5 3.1 1.5 5 0 2.4 0.5 3.4 1.5 3.4 1 0 1.5 1.1 1.5 3.5 0 3.3 -0.2 3.5 -3.5 3.5 -3.3 0 -3.5 -0.2 -3.5 -3.5z"/>
  <path d="M182.5 295.9 c-6.1 -1.5 -13.2 -6.7 -17.6 -13.3 -2.1 -3.2 -3.9 -6.2 -3.9 -6.7 0 -0.5 1.1 -0.9 2.5 -0.9 1.8 0 2.6 0.7 3.1 2.5 0.3 1.4 1 2.5 1.5 2.5 0.5 0 0.9 0.9 0.9 2 0 1.2 0.7 2 1.6 2 0.9 0 1.8 0.9 2.1 2 0.3 1.1 1.4 2 2.4 2 1.1 0 1.9 0.4 1.9 0.8 0 1 8.7 4.2 11.3 4.2 1 0 1.7 0.8 1.7 2 0 2.2 -1.2 2.3 -7.5 0.9z"/>
  <path d="M158 269.6 c-2 -4.9 -6 -17.6 -6 -19.5 0 -0.6 0.9 -1.1 2 -1.1 1.6 0 2 0.7 2 3.4 0 1.9 0.4 3.6 1 3.8 0.5 0.2 1.5 2.7 2.2 5.6 0.7 2.8 1.6 5.2 2 5.2 0.5 0 0.8 1.6 0.8 3.5 0 4.8 -1.7 4.4 -4 -0.9z"/>
  <path d="M308 257.5 c0 -2.8 0.4 -3.5 1.9 -3.5 1.4 0 2.3 -1.5 3.7 -6 1.4 -4.3 2.4 -6 3.7 -6 2.1 0 2.1 1.2 0.2 7.8 -1 3.3 -2.5 5.8 -4 6.8 -1.4 0.9 -2.5 2.3 -2.5 3 0 0.8 -0.7 1.4 -1.5 1.4 -1 0 -1.5 -1.1 -1.5 -3.5z"/>
  <path d="M150.6 244.8 c-1 -3.8 -0.7 -4.8 1.4 -4.8 1.6 0 2 0.7 2 3.5 0 4 -2.4 4.9 -3.4 1.3z"/>
  <path d="M148.6 232.8 c-1 -3.8 -0.7 -4.8 1.4 -4.8 1.6 0 2 0.7 2 3.5 0 4 -2.4 4.9 -3.4 1.3z"/>
  <path d="M320 227.6 c0 -3.2 0.3 -3.6 2.5 -3.6 2.4 0 2.5 0.1 1.2 3.2 -1.9 4.6 -3.7 4.8 -3.7 0.4z"/>
  <path d="M146.6 215.8 c-1 -3.8 -0.7 -4.8 1.4 -4.8 1.6 0 2 0.7 2 3.5 0 4 -2.4 4.9 -3.4 1.3z"/>
  <path d="M329 209.5 c0 -3.1 0.3 -3.5 2.5 -3.5 3 0 3 0.3 0.8 4.1 -2.3 3.8 -3.3 3.7 -3.3 -0.6z"/>
  <path d="M334 201.1 c0 -4.5 1 -6.1 3.6 -6.1 2.9 0 2.9 0.3 0.2 5.1 -2.6 4.6 -3.8 5 -3.8 1z"/>
  <path d="M145.6 196.8 c-1 -3.8 -0.7 -4.8 1.4 -4.8 1.6 0 2 0.7 2 3.5 0 4 -2.4 4.9 -3.4 1.3z"/>
  <path d="M345 178.5 c0 -3.3 0.2 -3.5 3.5 -3.5 3.3 0 3.5 0.2 3.5 3.5 0 3.3 -0.2 3.5 -3.5 3.5 -3.3 0 -3.5 -0.2 -3.5 -3.5z"/>
  <path d="M349 168.3 c0 -3.1 0.2 -3.3 3.5 -3.3 3.3 0 3.5 0.2 3.5 3.5 0 3.3 -0.1 3.4 -3.5 3.3 -3.3 -0.1 -3.5 -0.3 -3.5 -3.5z"/>
  <path d="M353 154.5 c0 -3.3 0.2 -3.5 3.5 -3.5 3.3 0 3.5 0.2 3.5 3.5 0 3.3 -0.2 3.5 -3.5 3.5 -3.3 0 -3.5 -0.2 -3.5 -3.5z"/>
  <path d="M198 61.5 c0 -3.3 0.2 -3.5 3.5 -3.5 1.9 0 3.5 -0.4 3.5 -1 0 -0.5 1.6 -1 3.5 -1 3.3 0 3.5 0.2 3.5 3.5 0 3.3 -0.2 3.5 -3.5 3.5 -1.9 0 -3.5 0.5 -3.5 1 0 0.6 -1.6 1 -3.5 1 -3.3 0 -3.5 -0.2 -3.5 -3.5z"/>
  <path d="M226 54.5 c0 -3.3 0.2 -3.5 3.5 -3.5 3.3 0 3.5 0.2 3.5 3.5 0 3.3 -0.2 3.5 -3.5 3.5 -3.3 0 -3.5 -0.2 -3.5 -3.5z"/>
  <path d="M247 51.5 c0 -3.3 0.2 -3.5 3.5 -3.5 3.3 0 3.5 0.2 3.5 3.5 0 3.3 -0.2 3.5 -3.5 3.5 -3.3 0 -3.5 -0.2 -3.5 -3.5z"/>
 </g>
 <g fill="#0c1e24">
  <path d="M145 191.5 c0 -1.3 -8.2 -1.5 -67.9 -1.5 l-67.9 0 2.5 -8.2 c3.1 -10.3 7.9 -22.8 12.8 -33.5 l3.8 -8.3 55.3 0 c40.5 0 55.4 -0.3 55.4 -1.1 0 -1.4 8.7 -0.6 10.2 0.9 0.7 0.7 0.6 6.2 -0.1 16.7 -0.6 8.7 -1.1 20.5 -1.1 26.2 0 8.5 -0.3 10.3 -1.5 10.3 -0.8 0 -1.5 -0.7 -1.5 -1.5z"/>
  <path d="M341.1 190 c-0.1 -2 1.8 -8 4.5 -14.3 4.6 -11 9.4 -27.6 9.4 -32.8 l0 -2.9 64.4 0 64.3 0 3.8 8.3 c4.9 10.7 9.7 23.2 12.8 33.5 l2.5 8.2 -79.8 -0.2 c-79.1 -0.3 -79.9 -0.3 -80.9 1.7 -0.8 1.7 -1 1.5 -1 -1.5z"/>
  <path d="M128 135.5 c0 -3.3 0.2 -3.5 3.5 -3.5 3.4 0 3.6 0.1 3.3 3.5 -0.2 3.2 -0.4 3.5 -3.5 3.5 -3.1 0 -3.3 -0.2 -3.3 -3.5z"/>
  <path d="M120 129.9 c0 -0.6 -0.7 -1.7 -1.5 -2.5 -0.8 -0.9 -1.5 -3.1 -1.5 -5 0 -3.2 0.2 -3.4 3.5 -3.4 2.9 0 3.6 0.4 4.1 2.5 0.3 1.4 1 2.5 1.5 2.5 0.5 0 0.9 1.6 0.9 3.5 0 3.3 -0.2 3.5 -3.5 3.5 -1.9 0 -3.5 -0.5 -3.5 -1.1z"/>
  <path d="M201.2 60.5 c-0.1 -3.4 0 -3.5 3.3 -3.5 3.3 0 3.5 0.2 3.5 3.5 0 3.3 -0.2 3.5 -3.3 3.5 -3.2 0 -3.4 -0.2 -3.5 -3.5z"/>
 </g>
 <g fill="#350d0e">
  <path d="M438.6 423.3 c-1.5 -4.7 -4.1 -11.6 -5.8 -15.2 -5.5 -11.4 -19.9 -23.7 -41.5 -35.2 -5.4 -2.9 -8.3 -5 -8.3 -6.1 0 -1.6 3.5 -1.7 52 -1.8 28.6 0 52 0.3 52 0.6 0 1.7 -11.7 22.6 -17.7 31.7 -6.9 10.4 -20 27.2 -25 31.9 l-2.9 2.8 -2.8 -8.7z m-8.6 -27.6 c0 -0.2 -1.9 -2.1 -4.2 -4.2 l-4.3 -4 4 4.3 c3.6 3.9 4.5 4.7 4.5 3.9z"/>
  <path d="M65.9 427.2 c-6.2 -6.2 -16.9 -20.2 -23.7 -30.5 -5.9 -9.2 -17.2 -29.5 -17.2 -31.1 0 -0.3 23 -0.6 51 -0.6 28.1 0 51.5 -0.2 52 -0.5 0.6 -0.4 1 0.5 1 1.9 0 1.4 -0.5 2.6 -1.1 2.6 -2.1 0 -24.7 13.9 -32.1 19.8 -12.4 9.9 -17.2 17.3 -22.9 35 -1.3 3.9 -2.5 7.2 -2.8 7.2 -0.4 -0.1 -2.2 -1.7 -4.2 -3.8z"/>
  <path d="M198 317.5 c0 -0.8 0.7 -1.5 1.5 -1.5 1.2 0 1.5 -1.8 1.5 -9.8 l0 -9.9 -3 0.5 c-2.4 0.3 -3 0.1 -3 -1.5 0 -1.6 1.2 -2.1 8.3 -3 11.8 -1.7 22.1 -3.6 22.7 -4.4 0.7 -0.9 10.1 -3.9 12.2 -3.9 1 0 1.8 -0.4 1.8 -1 0 -0.5 1.6 -1 3.5 -1 2.2 0 3.5 -0.5 3.5 -1.3 0 -1.8 8.4 -5.7 12.2 -5.7 3.1 0 3.1 0 2.5 4.6 -0.4 3.8 -1.3 5.4 -5.3 9.5 -3.4 3.5 -5.6 4.9 -7.5 4.9 -2.3 0 -2.8 0.5 -3.1 2.8 -0.2 1.9 -0.9 2.8 -2.5 3 -1.3 0.2 -2.3 1 -2.3 1.8 0 1 -1.1 1.4 -3.7 1.4 l-3.8 -0.1 4.5 -3.7 c2.5 -2 8.8 -7.8 14 -12.9 l9.5 -9.3 -5.5 2.9 c-12.9 6.8 -35 13.9 -48.7 15.7 l-5.3 0.7 0 9.8 0 9.9 2.8 -0.6 c1.5 -0.4 5.5 -1.7 9 -3 l6.2 -2.3 0 2.4 c0 2.1 -0.9 2.7 -6.6 4.5 -8 2.4 -15.4 2.7 -15.4 0.5z"/>
  <path d="M225 308.2 c0 -0.8 5.2 -4.2 6.4 -4.2 0.3 0 0.6 1.1 0.6 2.5 0 2.2 -0.4 2.5 -3.5 2.5 -1.9 0 -3.5 -0.4 -3.5 -0.8z"/>
  <path d="M183.7 295.9 c-4.7 -1.1 -7.7 -2.6 -7.7 -3.9 0 -1.3 3.4 -1.2 9.7 0.2 3.9 0.9 5.3 1.7 5.3 3 0 2 -1.4 2.1 -7.3 0.7z"/>
  <path d="M166.8 285 l-2.8 -3.5 2.6 -0.3 c3.3 -0.4 3.6 -0.1 3.2 3.9 l-0.3 3.4 -2.7 -3.5z"/>
  <path d="M161.7 277.2 c-0.9 -1.6 -2.1 -4.1 -2.6 -5.5 -1 -2.4 -0.8 -2.7 1.3 -2.7 2.6 0 4.6 3.4 4.6 8 0 3.8 -1.1 3.8 -3.3 0.2z"/>
  <path d="M310.1 256.8 c-0.1 -2.2 0.5 -4 1.3 -4.5 0.7 -0.4 2.8 -6.4 4.5 -13.3 3.3 -13.1 10.5 -30 12.8 -30 0.7 0 1.3 -0.9 1.3 -2 0 -3.2 2.2 -7 4.2 -7 1.3 0 1.8 -0.8 1.8 -3 0 -3 7.4 -19.2 9.1 -19.8 0.5 -0.2 0.9 -1.2 0.9 -2.2 0 -1.9 1.9 -7 3 -8 0.9 -0.8 5 -18.4 5 -21.4 0 -2 0.5 -2.6 2.1 -2.6 2 0 2.1 0.4 1.5 4.7 -2 14.6 -7.7 29.4 -20.5 53.3 -13.3 24.8 -14 26.3 -17.3 38.8 -3.3 12.9 -5.1 17.2 -7.3 17.2 -0.7 0 -1.6 0.8 -1.8 1.8 -0.3 0.9 -0.5 0 -0.6 -2z"/>
  <path d="M153.6 256.8 c-1 -3.8 -0.7 -4.8 1.4 -4.8 1.6 0 2 0.7 2 3.5 0 4 -2.4 4.9 -3.4 1.3z"/>
  <path d="M149.6 238.8 c-1 -3.8 -0.7 -4.8 1.4 -4.8 1.6 0 2 0.7 2 3.5 0 4 -2.4 4.9 -3.4 1.3z"/>
  <path d="M147.6 224.8 c-1 -3.8 -0.7 -4.8 1.4 -4.8 1.6 0 2 0.7 2 3.5 0 4 -2.4 4.9 -3.4 1.3z"/>
  <path d="M146.6 214.8 c-1 -3.8 -0.7 -4.8 1.4 -4.8 1.6 0 2 0.7 2 3.5 0 4 -2.4 4.9 -3.4 1.3z"/>
  <path d="M354 134.5 c0 -3.3 0.2 -3.5 3.5 -3.5 3.3 0 3.5 0.2 3.5 3.5 0 3.3 -0.2 3.5 -3.5 3.5 -3.3 0 -3.5 -0.2 -3.5 -3.5z"/>
  <path d="M352 126.9 c0 -1.1 -0.7 -2.7 -1.5 -3.5 -0.8 -0.9 -1.5 -2.9 -1.5 -4.5 0 -2.2 -0.5 -2.9 -2 -2.9 -1.6 0 -2 -0.7 -2 -3.5 0 -3.3 0.2 -3.5 3.5 -3.5 3.2 0 3.5 0.2 3.5 3 0 2.3 0.5 3 1.9 3 2 0 3.1 1.8 3.1 5.1 0 1 0.5 1.9 1 1.9 0.6 0 1 1.5 1 3.3 0 3.2 -0.2 3.4 -3.5 3.5 -2.9 0.1 -3.5 -0.2 -3.5 -1.9z"/>
  <path d="M337.6 104.9 c-1.3 -6.7 -0.9 -7.9 2.8 -7.9 3 0 3.4 0.4 4 3.1 1.3 6.7 0.9 7.9 -2.8 7.9 -3 0 -3.4 -0.4 -4 -3.1z"/>
  <path d="M329 81.5 c0 -3.1 -0.3 -3.5 -2.5 -3.5 -2.2 0 -2.5 -0.4 -2.5 -3.5 0 -3.3 -0.2 -3.5 -3.5 -3.5 -3.1 0 -3.5 -0.3 -3.5 -2.5 0 -2.2 -0.4 -2.5 -3.5 -2.5 -3.3 0 -3.5 -0.2 -3.5 -3.5 0 -3.3 0.2 -3.5 3.5 -3.5 3.1 0 3.5 0.3 3.5 2.5 0 2.2 0.4 2.5 3.5 2.5 3.3 0 3.5 0.2 3.5 3.5 0 3.3 0.2 3.5 3.5 3.5 3.3 0 3.5 0.2 3.5 3.5 0 3.1 0.3 3.5 2.5 3.5 2.2 0 2.5 0.4 2.5 3.5 0 3.3 -0.2 3.5 -3.5 3.5 -3.3 0 -3.5 -0.2 -3.5 -3.5z"/>
  <path d="M192 63.6 c0 -3.6 1.5 -4.6 7.1 -4.6 2.2 0 2.6 0.4 2.7 3.4 0.1 3.6 -1.3 4.6 -7 4.6 -2.5 0 -2.8 -0.4 -2.8 -3.4z"/>
  <path d="M213 57.6 c0 -3.2 0.1 -3.3 5.7 -4.5 9.3 -1.8 10.3 -1.6 10.3 2.2 0 3.2 -0.1 3.3 -5.8 4.5 -9.3 1.9 -10.2 1.7 -10.2 -2.2z"/>
  <path d="M286.5 56.5 c-2.7 -0.7 -6.7 -1.4 -8.7 -1.4 -3.7 -0.1 -3.8 -0.2 -3.8 -3.7 l0 -3.7 6.3 0.7 c3.4 0.3 8.8 1.1 12 1.7 5.6 1.1 5.7 1.2 5.7 4.5 0 3.2 -0.2 3.4 -3.2 3.3 -1.8 -0.1 -5.5 -0.7 -8.3 -1.4z"/>
  <path d="M232 53.6 c0 -3.3 0.1 -3.3 5.3 -4 8.6 -1 8.7 -1 8.7 2.8 0 3.3 -0.1 3.3 -5.2 4 -8.7 1 -8.8 1 -8.8 -2.8z"/>
  <path d="M248 51.5 c0 -3.3 0.2 -3.5 3.5 -3.5 3.3 0 3.5 0.2 3.5 3.5 0 3.3 -0.2 3.5 -3.5 3.5 -3.3 0 -3.5 -0.2 -3.5 -3.5z"/>
 </g>
 <g fill="#0d2c34">
  <path d="M145.5 167 c-1 -1.7 0.5 -7 2.1 -7 1 0 1.4 1.2 1.4 4 0 2.8 -0.4 4 -1.4 4 -0.8 0 -1.8 -0.5 -2.1 -1z"/>
  <path d="M146.2 147 l0.3 -4 -59.8 0 -59.9 0 4.2 -7.7 c5.2 -9.5 17.2 -27.9 22.9 -35 l4.1 -5.3 32.5 0 32.5 0 0 2.2 c0 1.2 -0.5 4.8 -1.2 8 -1 5 -0.9 6.5 0.6 11.5 2.4 7.5 11.4 16.7 19.8 20.3 4.6 2 5.8 3 5.8 4.8 0 1.2 0.5 2.2 1 2.2 0.6 0 1 1.6 1 3.5 0 2.8 -0.4 3.5 -2 3.5 -1.8 0 -2 -0.6 -1.8 -4z"/>
  <path d="M355 141.7 c0 -10 -4.5 -21.1 -11.6 -28.7 -4.6 -4.9 -6.4 -9.1 -6.4 -14.7 l0 -3.3 58.5 0 58.5 0 4.1 5.3 c5.7 7.1 17.7 25.5 22.9 35 l4.2 7.7 -63.6 0 c-55.9 0 -63.6 0.2 -63.6 1.5 0 0.8 -0.7 1.5 -1.5 1.5 -1.1 0 -1.5 -1.1 -1.5 -4.3z"/>
  <path d="M332.7 90.4 c-0.9 -1.9 -1.7 -4.4 -1.7 -5.4 0 -1.1 -0.7 -2 -1.5 -2 -0.8 0 -1.5 -0.9 -1.5 -2 0 -1.1 -0.7 -2 -1.5 -2 -1 0 -1.5 -1.1 -1.5 -3.5 0 -3.3 0.2 -3.5 3.5 -3.5 2.8 0 3.5 0.4 3.5 2 0 1.1 0.7 2 1.5 2 0.9 0 1.5 0.9 1.5 2.5 0 1.4 0.6 2.5 1.3 2.5 1.7 0 4.7 6.3 4.7 9.9 0 2.5 -0.4 2.8 -3.3 2.9 -2.9 0.1 -3.6 -0.4 -5 -3.4z"/>
  <path d="M316 66.5 c0 -3.3 0.2 -3.5 3.5 -3.5 3.3 0 3.5 0.2 3.5 3.5 0 3.3 -0.2 3.5 -3.5 3.5 -3.3 0 -3.5 -0.2 -3.5 -3.5z"/>
  <path d="M208.2 58.5 c-0.1 -3.4 0 -3.5 3.3 -3.5 3.3 0 3.5 0.2 3.5 3.5 0 3.3 -0.2 3.5 -3.3 3.5 -3.2 0 -3.4 -0.2 -3.5 -3.5z"/>
  <path d="M295 55.5 c0 -3.3 0.2 -3.5 3.5 -3.5 3.3 0 3.5 0.2 3.5 3.5 0 3.3 -0.2 3.5 -3.5 3.5 -3.3 0 -3.5 -0.2 -3.5 -3.5z"/>
  <path d="M231 53.5 c0 -3.3 0.2 -3.5 3.5 -3.5 3.3 0 3.5 0.2 3.5 3.5 0 3.3 -0.2 3.5 -3.5 3.5 -3.3 0 -3.5 -0.2 -3.5 -3.5z"/>
 </g>
 <g fill="#0d3540">
  <path d="M145.4 167.3 c0.2 -1.6 0.4 -3.4 0.5 -4 0 -0.7 0.8 -1.3 1.6 -1.3 1.1 0 1.5 1.1 1.5 4 0 3.3 -0.3 4 -1.9 4 -1.6 0 -1.9 -0.6 -1.7 -2.7z"/>
  <path d="M146 150.8 c0 -3 1.3 -5.8 2.6 -5.8 0.9 0 1.4 1.2 1.4 3.5 0 2.8 -0.4 3.5 -2 3.5 -1.1 0 -2 -0.6 -2 -1.2z"/>
  <path d="M119.2 100.5 l0.5 -2.5 -31.9 0 -31.9 0 2 -2.8 c1.1 -1.6 6.1 -7.2 11.1 -12.5 l9.1 -9.6 43.8 -0.3 c40.1 -0.3 43.9 -0.4 45.5 -2 1 -1 3.2 -1.8 5.2 -1.8 2.4 0 3.4 -0.5 3.4 -1.5 0 -0.9 0.9 -1.5 2.5 -1.5 1.4 0 2.5 -0.4 2.5 -1 0 -0.5 1.1 -1 2.5 -1 1.4 0 2.5 -0.4 2.5 -1 0 -0.5 1.1 -1 2.5 -1 1.4 0 2.5 -0.4 2.5 -1 0 -0.5 1.6 -1 3.5 -1 3.3 0 3.5 0.2 3.5 3.5 0 3.1 -0.3 3.5 -2.5 3.5 -1.4 0 -2.5 0.5 -2.5 1 0 0.6 -1.1 1 -2.5 1 -1.4 0 -2.5 0.5 -2.5 1 0 0.6 -1.1 1 -2.5 1 -1.4 0 -2.5 0.5 -2.5 1 0 0.6 -1.6 1 -3.5 1 -2.3 0 -3.5 0.5 -3.5 1.4 0 1.5 -2.1 2.6 -5 2.6 -1 0 -2 0.5 -2.2 1 -0.2 0.6 -4.1 2.4 -8.8 4 -8.8 3.1 -18.4 3.9 -22 2 -1.5 -0.8 -2.7 -0.1 -6.9 4.7 -2.8 3.1 -5.8 7.6 -6.8 10 -1.2 2.9 -2.4 4.3 -3.7 4.3 -1.4 0 -1.7 -0.6 -1.4 -2.5z"/>
  <path d="M336 97.3 c-0.7 -2.1 -3 -7.1 -5.1 -11.2 -3.9 -7.4 -5.1 -11.9 -2.6 -10.5 0.8 0.5 0.8 0.2 -0.2 -0.9 -1.3 -1.6 2 -1.7 52.2 -1.7 l53.5 0 9.2 9.7 c5 5.3 10 10.9 11.1 12.5 l2 2.8 -58 0 c-51 0 -58.1 0.2 -58.1 1.5 0 3 -2.9 1.4 -4 -2.2z"/>
  <path d="M204.2 59.5 c-0.1 -3.4 0 -3.5 3.3 -3.5 3.3 0 3.5 0.2 3.5 3.5 0 3.3 -0.2 3.5 -3.3 3.5 -3.2 0 -3.4 -0.2 -3.5 -3.5z"/>
  <path d="M212 57.6 c0 -3 0.4 -3.4 3.1 -4 6.7 -1.3 7.9 -0.9 7.9 2.8 0 3 -0.4 3.4 -3.1 4 -6.7 1.3 -7.9 0.9 -7.9 -2.8z"/>
  <path d="M246 51.5 c0 -3.3 0.2 -3.5 3.5 -3.5 3.3 0 3.5 0.2 3.5 3.5 0 3.3 -0.2 3.5 -3.5 3.5 -3.3 0 -3.5 -0.2 -3.5 -3.5z"/>
 </g>
 <g fill="#0d404c">
  <path d="M146 151.8 c0 -3 1.3 -5.8 2.6 -5.8 0.9 0 1.4 1.2 1.4 3.5 0 2.8 -0.4 3.5 -2 3.5 -1.1 0 -2 -0.6 -2 -1.2z"/>
  <path d="M330 84.4 c0 -0.8 -3.5 -5 -7.7 -9.3 -20.5 -20.6 -50.9 -25.8 -95.5 -16.5 -15.9 3.3 -28.3 7.3 -45.5 14.4 -7.9 3.3 -15.7 6 -17.3 6 -2 0 -3 0.5 -3 1.5 0 1.2 -1.3 1.5 -6.2 1.4 l-6.3 -0.1 4 -1.2 4 -1.3 -8.5 -0.5 -8.5 -0.4 10 -0.1 c5.5 -0.1 11.1 -0.6 12.5 -1.1 1.8 -0.8 -10.5 -1.1 -42 -1.2 l-44.5 -0.1 7.5 -7.1 c15.4 -14.6 34.9 -28.2 55.6 -39 l13.1 -6.8 101.6 0 c71.8 0 101.6 -0.3 101.9 -1.1 0.4 -1.3 25 10.9 35.8 17.7 11.8 7.5 28.8 20.5 37.5 28.7 l8 7.6 -53.3 0.1 c-35.3 0 -53.1 0.3 -52.7 1 0.4 0.6 20 1.1 54.8 1.2 l54.2 0.3 -54.4 0.5 c-48.4 0.4 -54.3 0.7 -53 2 0.8 0.8 1.8 2.3 2.2 3.3 0.5 1.3 0.1 1.7 -1.8 1.7 -1.6 0 -2.5 -0.6 -2.5 -1.6z"/>
  <path d="M133 80.5 c1.1 -1.3 -2.4 -1.5 -29.1 -1.8 l-30.4 -0.3 30.8 -0.1 c16.9 -0.1 31.1 -0.4 31.6 -0.8 0.6 -0.3 2.1 0.6 3.5 2 l2.5 2.5 -5.1 0 c-4.3 0 -4.9 -0.2 -3.8 -1.5z"/>
 </g>
 <g fill="#0e4b59">
  <path d="M142 28 c2 -1.3 226 -1.3 228 0 1 0.6 -39.1 1 -114 1 -74.9 0 -115 -0.4 -114 -1z"/>
  <path d="M148.2 25 c0.9 -0.6 6.8 -3.1 13 -5.6 34.2 -13.8 74.8 -20.2 111.3 -17.6 28.1 2.1 54.4 8 78.3 17.6 6.2 2.5 12.1 5 13 5.6 1.1 0.6 -35.6 0.9 -107.8 0.9 -72.2 0 -108.9 -0.3 -107.8 -0.9z"/>
 </g>
 <g fill="#3c3277">
  <path d="M235 511.4 c-44.3 -5.1 -77.6 -15.8 -109.9 -35.3 -17.9 -10.9 -28.4 -18.8 -45.6 -34.6 -12.4 -11.3 -12.4 -11.4 -9 -21.7 4.5 -13.5 8.4 -20.6 15.3 -27.4 9.9 -9.9 29 -21.7 51.4 -31.9 7.3 -3.3 8.8 -4.4 8.8 -6.3 0 -3.2 3.3 -9.2 6.9 -12.6 2.6 -2.5 3.6 -2.8 7 -2.3 3.3 0.4 4.1 0.2 4.6 -1.4 0.3 -1 3.2 -4.5 6.4 -7.8 7.5 -7.6 18.7 -13.3 27.2 -13.9 5.5 -0.4 5.9 -0.3 5.9 1.7 0 1.8 -0.6 2.1 -4.2 2.1 -3.9 0 -17.8 5.4 -18.6 7.2 -0.2 0.5 -1.2 0.8 -2.3 0.8 -1 0 -1.9 0.6 -1.9 1.4 0 0.8 -1.4 2.6 -3 3.9 -1.7 1.4 -3 2.9 -3 3.4 -0.1 0.4 -1 1.9 -2.1 3.3 -1.7 2 -3.2 2.5 -8.5 2.8 -5.4 0.4 -6.4 0.7 -6.4 2.3 0 1 -1 3.5 -2.2 5.5 -1.4 2.5 -2.1 5 -1.9 7.7 1.6 28.6 22.5 80.9 47.6 119.7 5.8 9.1 6 9.1 4.5 0.9 -2.8 -14.3 -4.2 -39.4 -4.7 -82.1 l-0.5 -44.8 3.2 0 c1.7 0 6.9 1.8 11.3 4 26.6 13.1 63.6 12.9 90.2 -0.5 5 -2.5 10.2 -4.5 11.7 -4.5 l2.6 0 0.7 17.8 c0.4 9.7 0.5 31.9 0.2 49.2 -0.6 29.9 -1.2 37 -5.2 65 l-0.7 4.5 2.2 -3 c4.5 -6.4 18.2 -29.8 23.5 -40.5 11.2 -22.4 23.9 -57.2 26.5 -72.9 1.7 -10.4 -0.6 -24.1 -4.2 -24.1 -0.9 0 -1.9 -0.4 -2.3 -0.9 -0.3 -0.6 -2.7 -1.3 -5.3 -1.7 -3.5 -0.5 -5.7 -1.5 -8.4 -4.2 -2.1 -2 -3.8 -4.2 -3.8 -4.9 0 -0.7 -0.7 -1.3 -1.5 -1.3 -0.9 0 -3.2 -1.1 -5.3 -2.5 -5.6 -3.7 -12.1 -5.7 -18.5 -5.6 l-5.8 0.1 0.3 -3.7 c0.3 -3.7 2.8 -6 2.8 -2.6 0 1.6 0.8 2 4.8 2.1 10.5 0.5 18.9 4.5 29.2 13.9 4.3 3.9 6.4 5.1 9.8 5.6 6.4 0.8 12.2 7 12.2 12.9 0 2.1 2.2 3.5 16.4 10.6 30.4 15.2 46.4 27.9 53 42.4 1.9 4 4.4 10.5 5.6 14.4 l2.3 7.1 -2.9 3.8 c-1.5 2 -7.3 7.8 -12.9 12.7 -39.3 35.2 -84.4 56.6 -135.5 64.3 -10 1.6 -49.9 2.8 -58 1.9z"/>
  <path d="M146 152.8 c0 -3 1.3 -5.8 2.6 -5.8 0.9 0 1.4 1.2 1.4 3.5 0 2.8 -0.4 3.5 -2 3.5 -1.1 0 -2 -0.6 -2 -1.2z"/>
  <path d="M146.7 144.1 c-0.3 -1.1 -1.7 -2.2 -3.5 -2.6 -4.2 -0.9 -14.1 -7.4 -17.6 -11.6 -3.7 -4.4 -7.6 -12.6 -7.6 -16.1 0 -2.1 0.5 -2.8 2 -2.8 1.4 0 2 0.7 2 2.3 0 2.8 4.5 10.4 9 15.4 3.3 3.5 11.3 8.2 16.8 9.8 1.7 0.5 2.2 1.4 2.2 4.1 0 3.7 -2.4 4.8 -3.3 1.5z"/>
  <path d="M118.3 104.5 c0.9 -5.3 5 -13.5 9 -18 l3.6 -4 0.1 3.7 c0 2 -0.6 4.1 -1.3 4.5 -1.7 1 -7.7 13 -7.7 15.5 0 1.2 -0.7 1.8 -2.1 1.8 -1.9 0 -2.1 -0.4 -1.6 -3.5z"/>
  <path d="M138 83 c0 -1.5 -0.7 -2 -2.7 -2 l-2.7 0 2 -2.1 2.1 -2.1 2.6 2.6 c1.4 1.4 3.3 2.6 4.2 2.6 0.8 0 1.5 0.7 1.5 1.5 0 1 -1.1 1.5 -3.5 1.5 -2.8 0 -3.5 -0.4 -3.5 -2z"/>
  <path d="M146 83.6 c0 -0.8 1.9 -1.8 4.8 -2.5 2.6 -0.7 11.5 -4.1 19.7 -7.6 26.2 -11.1 25.5 -10.9 25.5 -7.5 0 1.5 -0.7 2 -2.5 2 -1.4 0 -2.5 0.5 -2.5 1 0 0.6 -1.1 1 -2.5 1 -1.4 0 -2.5 0.4 -2.5 0.8 0 0.9 -9.8 5.2 -11.8 5.2 -0.8 0 -2 0.7 -2.8 1.5 -0.9 0.8 -2.6 1.5 -4 1.5 -1.3 0 -2.4 0.4 -2.4 0.9 0 1.3 -11.7 5.1 -15.7 5.1 -2.1 0 -3.3 -0.5 -3.3 -1.4z"/>
 </g>
 <g fill="#5244a6">
  <path d="M205 496.5 c-25.5 -34.5 -50.8 -89.4 -56.4 -122.5 -3.1 -18.3 -3.1 -20.4 0 -25.9 3.7 -6.9 5.7 -8.5 10.8 -8.6 4 0 4.7 -0.4 8.3 -5 8 -10.2 18.2 -16.2 29.7 -17.6 3.8 -0.5 7.1 -0.7 7.4 -0.5 0.2 0.2 -0.2 7.4 -0.9 15.8 -1.3 16.1 -0.9 20.8 1.6 20.8 0.9 0 1.5 1 1.5 2.5 0 2.9 -0.8 3.1 -3.6 1 -1 -0.8 -2.3 -1.5 -2.8 -1.5 -1.4 0 0 81.4 1.8 99.5 1.2 12.9 4.8 36.3 7 45.8 0.6 2.7 0 2.1 -4.4 -3.8z"/>
  <path d="M305 501.5 c0 -0.2 0.9 -6.2 2.1 -13.1 4.8 -30.1 5.9 -41.8 6.6 -70.4 0.7 -34.7 -0.3 -64.1 -2.2 -63.4 -1 0.4 -1.5 -2.4 -2 -12.3 -1.2 -19.8 -1.1 -22.5 0.3 -23 0.7 -0.3 1.2 0.3 1.2 1.4 0 1.6 0.6 1.9 2.9 1.5 4 -0.6 14.7 2.4 20.1 5.5 2.5 1.5 7 5 10 7.8 4.3 4.1 6.5 5.4 9.8 5.9 8.9 1.3 11.9 5.5 12.9 17.4 0.8 10.3 -0.9 19.4 -6.8 37.8 -11.2 34.6 -26.6 65.8 -46.7 94.7 -6.9 9.9 -8.2 11.5 -8.2 10.2z"/>
  <path d="M243.8 368.3 c-1 -0.2 -1.8 -1.1 -1.8 -1.9 0 -1 1.3 -1.4 5 -1.4 4.3 0 5 0.3 5 2 0 1.6 -0.6 2 -3.2 1.9 -1.8 -0.1 -4.1 -0.3 -5 -0.6z"/>
  <path d="M261 367 c0 -1.7 0.7 -2 4.5 -2 4.9 0 6.4 2.3 2.3 3.4 -4.5 1.2 -6.8 0.7 -6.8 -1.4z"/>
  <path d="M229 366.1 c-9.8 -2.1 -20.2 -6 -20.8 -7.8 -0.6 -2.1 4 -1.5 13.5 1.6 4.8 1.7 11.2 3.3 14.1 3.7 4.2 0.5 5.2 1 5.2 2.5 0 2.3 -1 2.3 -12 0z"/>
  <path d="M271 366.4 c0 -1.6 1.5 -2.2 9.3 -3.7 11.1 -2.1 12.7 -2.1 12.7 -0.3 0 1.4 -7.3 3.5 -17.7 5.2 -3.8 0.6 -4.3 0.4 -4.3 -1.2z"/>
  <path d="M295 360.5 c0 -2.2 0.4 -2.5 3.6 -2.5 4.4 0 4.2 1.8 -0.4 3.7 -3.1 1.3 -3.2 1.2 -3.2 -1.2z"/>
 </g>
 <g fill="#f45e15">
  <path d="M308.7 103.8 c-26.7 -29.3 -44.7 -50 -44.7 -51.2 0 -1.8 0.5 -1.9 9.9 -1.3 12.8 0.9 27.4 4.7 36.3 9.4 13.8 7.4 25.4 22.1 29.4 37.3 1.3 4.9 2.9 7.7 6.2 11.5 8.7 9.7 13 22.9 11.7 36.2 -0.6 6 -1 7.3 -2.4 7.3 -1.1 0 -19.8 -19.8 -46.4 -49.2z"/>
 </g>
 <g fill="#e8552c">
  <path d="M289.3 119 c-33.8 -37.2 -55.3 -61.7 -55.3 -62.9 0 -1.1 0.8 -2.2 1.8 -2.5 4.4 -1.3 20.7 -2.5 30.7 -2.4 7.5 0.1 9.4 0.3 6.1 0.7 l-4.8 0.6 41.7 46 c23 25.3 43.1 47.4 44.7 49.1 l3 3.2 -1.6 6.3 c-2.7 11 -7.7 22.9 -9.5 22.8 -0.9 0 -26.5 -27.4 -56.8 -60.9z"/>
  <path d="M357.3 140.5 c0 -3.3 0.2 -4.5 0.4 -2.7 0.2 1.8 0.2 4.5 0 6 -0.2 1.5 -0.4 0 -0.4 -3.3z"/>
  <path d="M323.4 70.8 l-2.9 -3.3 3.3 2.9 c1.7 1.7 3.2 3.1 3.2 3.3 0 0.8 -0.8 0.1 -3.6 -2.9z"/>
 </g>
 <g fill="#de4d41">
  <path d="M326 192.5 c-4.7 -5.2 -8.8 -9.5 -9.1 -9.5 -0.4 0 -0.9 -1.3 -1.2 -2.9 -1.2 -6 -10 -13.1 -16.1 -13.1 -2.3 0 -2.6 -0.4 -2.6 -3.2 0 -2.9 -5.1 -8.9 -44.5 -52.3 -24.5 -26.9 -44.5 -49.5 -44.5 -50.2 0 -1.7 0.6 -2 12.6 -4.6 14.4 -3.2 19.3 -4 17.5 -2.8 -1.1 0.7 11.6 15.1 54 61.7 30.4 33.5 55.7 60.8 56.1 60.7 0.4 -0.2 0.8 -0.1 0.8 0.2 0 1.6 -12.6 25.5 -13.5 25.5 -0.6 0 -4.8 -4.3 -9.5 -9.5z"/>
 </g>
 <g fill="#d34457">
  <path d="M307 296.5 c0 -24.8 0.1 -25.5 2 -25.5 1.9 0 2 0.7 2 25.5 0 24.8 -0.1 25.5 -2 25.5 -1.9 0 -2 -0.7 -2 -25.5z"/>
  <path d="M206 316.9 c0 -0.8 2.5 -2.3 5.8 -3.5 3.1 -1.2 6.5 -2.4 7.5 -2.9 1.4 -0.6 1.7 -0.2 1.7 1.9 0 2.1 -0.5 2.6 -2.4 2.6 -1.3 0 -2.6 0.5 -2.8 1.1 -0.2 0.6 -2.5 1.3 -5.1 1.6 -3.6 0.4 -4.7 0.2 -4.7 -0.8z"/>
  <path d="M224 309.1 c0 -0.5 1.6 -1.8 3.5 -3 l3.5 -2 0 2.9 c0 2.8 -0.3 3 -3.5 3 -1.9 0 -3.5 -0.4 -3.5 -0.9z"/>
  <path d="M184.3 295.8 c-2.7 -0.6 -4.3 -1.5 -4.3 -2.4 0 -1.2 1.5 -1.4 9.3 -0.8 5 0.4 9.4 0.8 9.6 1 0.2 0.2 0.1 1 -0.2 1.9 -0.7 1.7 -7.4 1.9 -14.4 0.3z"/>
  <path d="M244.5 294 c1.6 -1.6 3.2 -3 3.7 -3 0.4 0 0.8 1.4 0.8 3 0 2.8 -0.3 3 -3.7 3 l-3.7 0 2.9 -3z"/>
  <path d="M201 294.3 c0 -1.5 1.3 -2.1 7.3 -3 3.9 -0.7 11.3 -2.4 16.2 -3.9 11.4 -3.4 16.5 -4.1 16.5 -2.2 0 2.2 -21.1 8.5 -34.7 10.3 -4.8 0.6 -5.3 0.5 -5.3 -1.2z"/>
  <path d="M171.2 289.5 c-3 -2.5 -9.2 -11.1 -9.2 -12.7 0 -0.4 1.1 -0.8 2.5 -0.8 2.1 0 2.5 0.5 2.5 3 0 2.3 0.4 3 2 3 1.3 0 2 0.7 2 2 0 1.3 0.7 2 2 2 1.6 0 2 0.7 2 3 0 1.7 -0.2 3 -0.4 3 -0.3 0 -1.8 -1.1 -3.4 -2.5z"/>
  <path d="M244 282.6 c0 -2.6 1.6 -3.6 6.1 -3.6 4 0 3.6 1.6 -1.1 4 -4.9 2.5 -5 2.5 -5 -0.4z"/>
  <path d="M257.6 281.8 c0.4 -0.7 1.4 -2.1 2.3 -3.2 1.6 -1.8 1.5 -1.8 -1.6 -0.2 -4.1 2.1 -4.3 2 -4.3 -0.8 0 -2.6 1.6 -3.6 6.1 -3.6 2.8 0 2.9 0.2 2.9 4.5 0 4.4 -0.1 4.5 -3.1 4.5 -2.1 0 -2.8 -0.4 -2.3 -1.2z"/>
  <path d="M158.5 270 c-2 -3.8 -1.9 -4 1 -4 2.2 0 2.5 0.4 2.5 3.5 0 4.3 -1.4 4.5 -3.5 0.5z"/>
  <path d="M154.3 258 l-2.1 -7 2.4 0 c2.1 0 2.4 0.5 2.4 3.5 0 1.9 0.5 3.5 1 3.5 0.6 0 1 1.6 1 3.5 0 6 -2.5 4.2 -4.7 -3.5z"/>
  <path d="M151.7 248.6 c-0.3 -0.7 -0.9 -3.4 -1.2 -6 -0.7 -4.2 -0.5 -4.6 1.3 -4.6 1.9 0 3.2 3.7 3.2 9.8 0 2.4 -2.5 3.1 -3.3 0.8z"/>
  <path d="M148.6 231.4 c-1.2 -3.2 -0.6 -5.4 1.4 -5.4 1.6 0 2 0.7 2 3.5 0 3.7 -2.2 4.9 -3.4 1.9z"/>
  <path d="M147.6 223.4 c-1.3 -3.4 -0.7 -6.4 1.4 -6.4 1.7 0 2 0.7 2 4 0 4.1 -2.1 5.7 -3.4 2.4z"/>
  <path d="M319.8 217.1 c-2.9 -3.4 -4.1 -4.1 -7.1 -4.1 -3.5 0 -3.7 -0.2 -3.7 -3.4 0 -1.9 0.4 -3.6 0.8 -3.8 0.4 -0.1 2.1 -3.2 3.7 -6.8 2.1 -4.8 3 -8.6 3.3 -14.2 0.3 -4.3 0.8 -7.8 1.3 -7.8 0.5 0 0.9 0.4 0.9 0.8 0 0.5 2.5 3.5 5.5 6.8 3.1 3.2 7.3 7.9 9.4 10.4 l3.8 4.5 -5.8 10.5 c-3.2 5.8 -6.5 10.6 -7.3 10.8 -0.7 0.2 -2.9 -1.5 -4.8 -3.7z"/>
  <path d="M146.7 213.3 c-0.4 -0.3 -0.7 -2.1 -0.7 -4 0 -2.6 0.4 -3.3 2 -3.3 1.7 0 2 0.7 2 4 0 3.8 -1.4 5.2 -3.3 3.3z"/>
  <path d="M145 181.5 c0 -7.8 0.2 -8.5 2 -8.5 1.8 0 2 0.7 2 8.5 0 7.8 -0.2 8.5 -2 8.5 -1.8 0 -2 -0.7 -2 -8.5z"/>
  <path d="M277 176.6 c0 -1.9 0.6 -3.6 1.3 -3.9 0.7 -0.2 -1 -2.7 -4.4 -6.3 l-5.6 -5.9 0.5 4.2 0.5 4.3 -3.7 0 c-2.8 0 -3.6 -0.4 -3.6 -1.8 0 -3.1 -3 -12 -4.5 -13.6 -0.8 -0.8 -1.5 -2.7 -1.5 -4.3 -0.1 -2.3 -6.7 -10.1 -35 -41.3 -19.3 -21.1 -35 -39 -35 -39.6 0 -1.3 5.8 -3.7 17.4 -7.3 l7 -2.2 2.2 2.3 c1.2 1.3 22.5 24.8 47.4 52.3 24.9 27.5 45.9 50.5 46.6 51.1 2.3 1.9 1.6 2.4 -3.2 2.4 -5.5 0 -10.1 2 -13.9 6 -1.6 1.7 -3.5 3 -4.2 3 -0.7 0 -1.3 0.9 -1.3 2 0 1.6 -0.7 2 -3.5 2 -3.3 0 -3.5 -0.2 -3.5 -3.4z"/>
  <path d="M146.2 153.8 c0.2 -2.2 0.9 -3.4 2.1 -3.6 1.4 -0.3 1.7 0.4 1.7 3.2 0 3 -0.4 3.6 -2.1 3.6 -1.7 0 -2 -0.5 -1.7 -3.2z"/>
  <path d="M245 149.5 c0 -3.3 0.2 -3.5 3.5 -3.5 3.3 0 3.5 0.2 3.5 3.5 0 3.3 -0.2 3.5 -3.5 3.5 -3.3 0 -3.5 -0.2 -3.5 -3.5z"/>
 </g>
 <g fill="#cb3e66">
  <path d="M202 317.6 c0 -1.3 2.8 -2.6 5.8 -2.6 0.6 0 1.2 0.9 1.2 2 0 1.6 -0.7 2 -3.5 2 -2.3 0 -3.5 -0.5 -3.5 -1.4z"/>
  <path d="M216 313.1 c0 -0.5 2.7 -2.3 6 -4 6.6 -3.3 19.5 -12.1 25 -17.1 3.3 -3 3.5 -3 3.8 -1 0.6 3.5 -0.5 5 -3.8 5 -2.5 0 -3 0.4 -3 2.5 0 1.8 -0.5 2.5 -2 2.5 -1.1 0 -2 0.7 -2 1.5 0 0.8 -0.7 1.5 -1.5 1.5 -0.8 0 -1.5 0.5 -1.5 1 0 0.6 -0.7 1 -1.5 1 -0.8 0 -1.5 0.5 -1.5 1 0 0.6 -1.1 1 -2.5 1 -1.4 0 -2.5 0.6 -2.5 1.3 0 0.7 -1.6 2.1 -3.5 3 -3.8 1.8 -9.5 2.3 -9.5 0.8z"/>
  <path d="M186.8 296.2 c-3.4 -0.7 -2 -3.2 1.7 -3.2 2.3 0 3.5 0.5 3.5 1.4 0 1.5 -2.5 2.4 -5.2 1.8z"/>
  <path d="M194.8 296.3 c-3.6 -0.9 -2 -3.3 2.2 -3.3 2.9 0 4 0.4 4 1.5 0 0.8 -0.4 1.5 -0.9 1.5 -0.5 0 -1.5 0.2 -2.3 0.4 -0.7 0.2 -2.1 0.2 -3 -0.1z"/>
  <path d="M202 294 c0 -1.2 0.7 -2 1.8 -2 0.9 0 4.1 -0.3 7 -0.6 4.4 -0.6 5.2 -0.4 5.2 1 0 0.9 -0.6 1.6 -1.2 1.7 -0.7 0 -2.1 0.2 -3 0.4 -8.1 1.5 -9.8 1.4 -9.8 -0.5z"/>
  <path d="M177.5 293.6 c-1.6 -0.8 -4.3 -2.5 -6 -4 l-3 -2.6 3.8 0 c2 0 3.7 0.4 3.7 0.9 0 0.5 1.1 1.2 2.5 1.5 1.8 0.5 2.5 1.3 2.5 3.1 0 1.4 -0.1 2.5 -0.2 2.5 -0.2 -0.1 -1.6 -0.7 -3.3 -1.4z"/>
  <path d="M218 291.1 c0 -1.9 3.4 -3.1 8.6 -3.1 4.2 0 2.8 2.6 -1.8 3.6 -6.7 1.5 -6.8 1.5 -6.8 -0.5z"/>
  <path d="M237 285 c0 -1.5 0.7 -2 2.5 -2 1.4 0 2.5 -0.4 2.5 -1 0 -0.5 1.6 -1 3.5 -1 4.7 0 4.4 1.4 -1 3.9 -5.6 2.6 -7.5 2.7 -7.5 0.1z"/>
  <path d="M165.8 283.3 c-2.9 -3.4 -3 -5.3 -0.3 -5.3 2.2 0 2.5 0.4 2.5 3.5 0 4 -0.1 4.1 -2.2 1.8z"/>
  <path d="M257.1 282.3 c0.8 -1 2 -2.4 2.7 -3.2 2 -2.1 0.6 -2.6 -2.3 -0.7 -2.2 1.4 -2.5 1.5 -2.5 0.1 0 -0.8 0.7 -1.5 1.5 -1.5 0.8 0 1.5 -0.9 1.5 -2 0 -1.6 0.7 -2 3.5 -2 3.3 0 3.5 0.2 3.5 3.5 0 2.4 -0.5 3.5 -1.5 3.5 -0.8 0 -1.5 0.9 -1.5 2 0 1.6 -0.7 2 -3.1 2 -2.9 0 -3 -0.2 -1.8 -1.7z"/>
  <path d="M158.4 269.3 c-0.6 -1 -1.9 -4.5 -2.8 -7.8 -1 -3.3 -2.2 -7.1 -2.7 -8.5 -0.5 -1.4 -1.1 -3.8 -1.4 -5.5 -0.2 -1.6 -0.7 -4.1 -1 -5.5 -2.6 -13.6 -2.7 -15 -0.7 -15 1.4 0 2.1 1.8 3.6 10.3 1 5.6 2.1 11.9 2.3 14 0.3 2 0.9 3.7 1.4 3.7 0.5 0 0.9 1.3 0.9 2.9 0 1.6 0.5 3.1 1.1 3.3 1.3 0.4 2.5 9.8 1.3 9.8 -0.5 0 -1.4 -0.8 -2 -1.7z"/>
  <path d="M307 260 c0 -0.5 -1.3 -1 -2.9 -1 -4.2 0 -6.1 -1 -6.1 -3.1 0 -1.4 -0.7 -1.9 -2.8 -1.9 -2.9 0 -6.2 -2.9 -6.2 -5.5 0 -0.8 -0.6 -1.5 -1.3 -1.5 -3.8 0 -6.2 -17.4 -3.4 -24.3 1.4 -3.3 2 -3.7 5.1 -3.7 2 0 3.6 -0.4 3.6 -1 0 -0.5 0.7 -1 1.5 -1 3.2 0 9.5 -4.1 13.7 -9 4.4 -5.2 9 -7.1 6.7 -2.9 -0.6 1.2 -0.7 1.9 -0.1 1.5 0.6 -0.3 3.3 2.1 6.2 5.4 2.9 3.3 5.6 5.7 6.2 5.4 0.5 -0.3 -0.1 1.4 -1.3 3.7 -1.2 2.4 -3.2 7.6 -4.5 11.4 -1.2 3.9 -2.8 7.1 -3.6 7.3 -0.7 0.1 -4.7 -3.5 -8.8 -8 -7.3 -8.1 -7.6 -8.3 -11.6 -8 -3.5 0.3 -4.4 0.8 -5.9 3.6 -1.1 2 -1.6 4.4 -1.2 6.2 0.9 4.5 3.1 10.4 3.9 10.4 1.6 0 4.8 3.5 4.8 5.2 0 1.3 0.8 1.8 2.9 1.8 1.6 0 3.6 0.7 4.5 1.5 0.8 0.8 2.8 1.5 4.5 1.5 3.2 0 4.2 1.6 1.6 2.6 -0.8 0.4 -1.5 1.5 -1.5 2.5 0 1.2 -0.7 1.9 -2 1.9 -1.1 0 -2 -0.4 -2 -1z"/>
  <path d="M147.9 224.8 c0 -0.7 -0.2 -2.3 -0.3 -3.5 -0.2 -1.7 0.3 -2.3 1.6 -2.3 1.4 0 1.8 0.8 1.8 3.5 0 2.4 -0.5 3.5 -1.5 3.5 -0.8 0 -1.5 -0.6 -1.6 -1.2z"/>
  <path d="M146.9 214.8 c-0.6 -5.8 -0.4 -6.8 1.3 -6.8 1.4 0 1.8 0.8 1.8 4 0 2.9 -0.4 4 -1.5 4 -0.8 0 -1.6 -0.6 -1.6 -1.2z"/>
  <path d="M145.6 195.4 c-1.5 -3.9 -0.2 -11.4 2 -11.4 1.1 0 1.4 1.6 1.4 6.5 0 4.9 -0.3 6.5 -1.4 6.5 -0.8 0 -1.7 -0.7 -2 -1.6z"/>
  <path d="M266.5 184.6 c-0.9 -1.3 -2.5 -7.5 -3.6 -13.8 -1.1 -6.2 -2.8 -12.9 -3.7 -14.8 -1.9 -4 -1.6 -3.9 -18.9 -2.6 l-10.3 0.9 0 -3.6 c0 -1.9 0.4 -3.7 0.8 -3.9 0.5 -0.2 -13.2 -15.8 -30.5 -34.8 -17.2 -18.9 -31.3 -35.2 -31.3 -36 0 -1 3.1 -2.9 8.7 -5.2 4.9 -2.1 9.3 -3.8 10 -4 1.7 -0.4 96.4 104.2 95.6 105.6 -0.3 0.6 0.3 0.2 1.5 -0.8 2.2 -1.9 2.2 -1.9 2.2 0.7 0 2.7 -6.7 11.9 -9.9 13.7 -3.7 1.9 -8.9 1.2 -10.6 -1.4z"/>
  <path d="M146 180.8 c-0.1 -0.2 -0.4 -3.1 -0.7 -6.5 -0.5 -5.9 -0.4 -6.3 1.6 -6.3 1.9 0 2.1 0.5 2.1 6.5 0 5.1 -0.3 6.5 -1.5 6.5 -0.8 0 -1.5 -0.1 -1.5 -0.2z"/>
  <path d="M146.4 153.3 c0.2 -1.6 0.4 -3.1 0.5 -3.5 0 -0.5 0.8 -0.8 1.6 -0.8 1 0 1.5 1.1 1.5 3.5 0 2.8 -0.4 3.5 -1.9 3.5 -1.6 0 -1.9 -0.6 -1.7 -2.7z"/>
  <path d="M205 151.5 l0 -3.5 7.5 0 7.5 0 0 3.5 0 3.5 -7.5 0 -7.5 0 0 -3.5z"/>
  <path d="M185 150.5 c0 -3.3 0.2 -3.5 3.5 -3.5 3.3 0 3.5 0.2 3.5 3.5 0 3.3 -0.2 3.5 -3.5 3.5 -3.3 0 -3.5 -0.2 -3.5 -3.5z"/>
 </g>
 <g fill="#c13679">
  <path d="M249 367 c0 -1.8 0.7 -2 7 -2 6.3 0 7 0.2 7 2 0 1.8 -0.7 2 -7 2 -6.3 0 -7 -0.2 -7 -2z"/>
  <path d="M237.3 367.3 c-2.8 -1.1 -1.3 -3.3 2.2 -3.3 2.8 0 3.5 0.4 3.5 2 0 2 -2.6 2.6 -5.7 1.3z"/>
  <path d="M276 365.2 c0 -1.4 1.3 -2.1 5.8 -3 7.6 -1.6 10.2 -1.5 10.2 0.2 0 1 -2.4 2 -6.9 3 -8.8 2 -9.1 2 -9.1 -0.2z"/>
  <path d="M221.8 364.3 c-3.3 -0.8 -2 -3.3 1.7 -3.3 2.8 0 3.5 0.4 3.5 2 0 2 -1.4 2.3 -5.2 1.3z"/>
  <path d="M209.3 359.5 c-4.3 -1.8 -4.2 -3.5 0.2 -3.5 3.1 0 3.5 0.3 3.5 2.5 0 1.4 -0.1 2.5 -0.2 2.5 -0.2 -0.1 -1.8 -0.7 -3.5 -1.5z"/>
  <path d="M299 358.7 c0 -2.7 3.4 -4.7 8 -4.7 4.4 0 3.7 1.6 -2 4.5 -6 3.1 -6 3.1 -6 0.2z"/>
  <path d="M200 347.5 c0 -2.8 0.4 -3.5 2 -3.5 1.6 0 2 0.7 2 3.5 0 2.8 -0.4 3.5 -2 3.5 -1.6 0 -2 -0.7 -2 -3.5z"/>
  <path d="M309 344.5 c0 -2.8 0.4 -3.5 2 -3.5 1.6 0 2 0.7 2 3.5 0 2.8 -0.4 3.5 -2 3.5 -1.6 0 -2 -0.7 -2 -3.5z"/>
  <path d="M201 325.1 c0 -3 1.1 -5.1 2.6 -5.1 0.9 0 1.4 1.2 1.4 3.5 0 2.8 -0.4 3.5 -2 3.5 -1.3 0 -2 -0.7 -2 -1.9z"/>
  <path d="M299.3 257.7 c-2.7 -1.3 -4.3 -2.8 -4.3 -3.9 0 -1.3 -0.8 -1.8 -2.5 -1.8 -1.8 0 -2.5 -0.5 -2.5 -2 0 -1.1 -0.7 -2 -1.5 -2 -1 0 -1.5 -1 -1.5 -3 0 -1.9 -0.5 -3 -1.4 -3 -1.8 0 -3.1 -7.3 -2.3 -13.7 0.9 -8.6 3.6 -10.4 18.2 -11.8 4.1 -0.4 4.6 -0.3 2.9 0.6 -2.1 1.1 -2 1.3 3.6 7.3 3.1 3.3 7.1 7.7 8.9 9.7 l3.1 3.6 -2 7.8 c-2 7.8 -4.1 11.5 -6.6 11.5 -0.8 0 -1.1 0.6 -0.8 1.5 0.9 2.3 -6.2 1.8 -11.3 -0.8z"/>
  <path d="M145.8 196.3 c-0.6 -2.8 0.2 -5.3 1.8 -5.3 0.9 0 1.4 1.1 1.4 3.5 0 3.7 -2.4 5 -3.2 1.8z"/>
  <path d="M145.7 171.8 c-0.8 -3.1 0.2 -6.8 1.9 -6.8 1 0 1.4 1.3 1.4 4.5 0 4.9 -2.3 6.4 -3.3 2.3z"/>
  <path d="M146.6 152.8 c0.1 -1.3 0.3 -2.9 0.3 -3.5 0.1 -0.7 0.8 -1.3 1.6 -1.3 1 0 1.5 1.1 1.5 3.5 0 2.7 -0.4 3.5 -1.8 3.5 -1.3 0 -1.8 -0.6 -1.6 -2.2z"/>
  <path d="M186 150.5 c0 -3.5 0 -3.5 4.5 -3.5 4.5 0 4.5 0 4.5 3.5 0 3.5 0 3.5 -4.5 3.5 -4.5 0 -4.5 0 -4.5 -3.5z"/>
  <path d="M209 153.1 c0 -0.6 1.9 -1.2 4.3 -1.4 4.1 -0.3 4.1 -0.4 -0.9 -0.5 l-5.1 -0.2 -29.7 -32.6 c-16.3 -17.9 -29.6 -33.4 -29.6 -34.3 0 -1.2 1.7 -2.3 5.6 -3.5 3 -1 8.5 -3.1 12.1 -4.7 7 -3.1 7.7 -3.3 6.9 -2.1 -0.6 1.1 66.9 75.6 68.9 76 0.8 0.2 1.5 0.9 1.5 1.6 0 0.8 -2 1.6 -5.2 2 -8.2 0.9 -28.8 0.7 -28.8 -0.3z"/>
  <path d="M168.6 151.5 c-4.3 -0.8 -11 -2.1 -14.7 -3 -6.8 -1.7 -6.9 -1.7 -6.9 -5.1 0 -4.2 1 -4.3 14.3 -0.9 5.4 1.3 12.7 2.7 16.2 3.1 l6.5 0.7 0 3.3 c0 3.3 -0.1 3.4 -3.7 3.3 -2.1 -0.1 -7.4 -0.7 -11.7 -1.4z"/>
 </g>
 <g fill="#b82f8a">
  <path d="M247.8 368.3 c-1 -0.2 -1.8 -1.1 -1.8 -1.9 0 -1 1.3 -1.4 4.5 -1.4 3.2 0 4.5 0.4 4.5 1.4 0 1.1 -3.3 2.8 -5 2.5 -0.3 -0.1 -1.3 -0.3 -2.2 -0.6z"/>
  <path d="M258.8 368.3 c-1 -0.2 -1.8 -1.1 -1.8 -1.9 0 -1 1.3 -1.4 4.5 -1.4 3.2 0 4.5 0.4 4.5 1.4 0 2.2 -3.1 3 -7.2 1.9z"/>
  <path d="M236.5 367.2 c-9.5 -1.6 -12.5 -2.5 -12.5 -3.8 0 -1.7 1.9 -1.8 11 -0.2 5.5 1 7 1.6 7 2.9 0 1.7 -0.9 1.9 -5.5 1.1z"/>
  <path d="M270 366 c0 -1.6 0.7 -2 3.5 -2 4 0 4.9 2.4 1.3 3.4 -3.8 1 -4.8 0.7 -4.8 -1.4z"/>
  <path d="M289 362.1 c0 -1.7 0.8 -2.2 4 -2.7 2.2 -0.4 4 -1 4 -1.5 0 -0.5 1.6 -0.9 3.5 -0.9 1.9 0 3.5 0.4 3.5 0.9 0 1.1 -8.1 5 -12.1 5.8 -2.5 0.5 -2.9 0.2 -2.9 -1.6z"/>
  <path d="M206.3 357.9 c-5.1 -2.5 -5.5 -3.9 -1 -3.9 4.2 0 6 1.2 5.5 3.9 l-0.3 2.1 -4.2 -2.1z"/>
  <path d="M308 354 c0 -2.5 0.4 -3 2.5 -3 1.5 0 2.5 0.6 2.5 1.4 0 0.7 -1.1 2.1 -2.5 3 -2.5 1.6 -2.5 1.6 -2.5 -1.4z"/>
  <path d="M200.1 342 c-0.2 -7.4 0 -8 1.9 -8 1.8 0 2 0.6 2 8 0 7.1 -0.2 8 -1.9 8 -1.6 0 -1.9 -0.9 -2 -8z"/>
  <path d="M309 342.9 c0 -3.3 0.3 -4 1.8 -3.7 1.2 0.2 1.7 1.4 1.9 4.1 0.1 3 -0.2 3.7 -1.8 3.7 -1.6 0 -1.9 -0.7 -1.9 -4.1z"/>
  <path d="M308 324.5 c0 -4 2.4 -4.9 3.4 -1.2 1 3.7 0.7 4.7 -1.4 4.7 -1.6 0 -2 -0.7 -2 -3.5z"/>
  <path d="M298.9 257 c-9.7 -5 -14.9 -12.7 -14.9 -22 0 -5.4 2 -7.1 2.1 -1.7 0 2.2 0.3 2.7 0.7 1.5 0.6 -1.4 3.1 0.8 12.5 11.1 6.4 7.2 11.7 13.2 11.7 13.5 0 1.6 -7.2 0.2 -12.1 -2.4z"/>
  <path d="M181 152.9 c-11.2 -1.1 -29.4 -4.8 -29.8 -6 -0.2 -0.5 -1.2 -0.9 -2.3 -0.9 -1.2 0 -1.9 -0.7 -1.9 -1.9 0 -1 -0.7 -2.1 -1.5 -2.5 -2.7 -1 -1.5 -2.6 2 -2.6 1.9 0 3.5 0.5 3.5 1 0 0.6 1.1 1 2.4 1 1.4 0 5.5 0.7 9.1 1.5 3.7 0.9 7.1 1.5 7.6 1.3 0.5 -0.2 -9.6 -12 -22.5 -26.2 -26.5 -29.3 -25.1 -26.1 -16 -35.4 l5.3 -5.5 2.2 2.7 c2.1 2.6 2.6 2.8 8.1 2.4 3.2 -0.2 5.3 -0.1 4.8 0.2 -0.7 0.4 11.9 15 29.4 34.3 16.8 18.5 30.6 33.8 30.6 34.1 0 0.2 -1 0.7 -2.2 0.9 -1.4 0.3 -0.9 0.5 1.5 0.6 2 0 3.7 0.6 3.7 1.1 0 1.2 -21.6 1.1 -34 -0.1z"/>
 </g>
 <g fill="#ad26a1">
  <path d="M261.8 368.2 c-3.4 -0.7 -2 -3.2 1.7 -3.2 2.3 0 3.5 0.5 3.5 1.4 0 1.5 -2.5 2.4 -5.2 1.8z"/>
  <path d="M305 355.4 c0 -2.1 0.5 -2.4 3.7 -2.4 3.5 0 3.6 0.1 1.9 1.9 -1 1 -2.6 2.1 -3.7 2.4 -1.5 0.4 -1.9 0 -1.9 -1.9z"/>
  <path d="M200.9 345.3 c-0.9 -9.9 -0.3 -14.3 1.7 -14.3 1.1 0 1.4 1.8 1.4 8 0 6.4 -0.3 8 -1.5 8 -0.8 0 -1.6 -0.8 -1.6 -1.7z"/>
  <path d="M309 341 c0 -2.7 0.4 -4 1.4 -4 1.6 0 2.6 3.2 1.9 6 -1 3.7 -3.3 2.3 -3.3 -2z"/>
  <path d="M201.4 323.8 c0.3 -1.3 0.5 -2.9 0.5 -3.5 0.1 -0.7 0.8 -1.3 1.6 -1.3 1 0 1.5 1.1 1.5 3.5 0 2.8 -0.4 3.5 -2 3.5 -1.5 0 -1.9 -0.5 -1.6 -2.2z"/>
  <path d="M161.2 149.5 c-14.1 -2.9 -14.5 -3.1 -13.9 -5.4 0.3 -1.5 -0.4 -2.1 -3.7 -3.1 -9.2 -2.7 -18.1 -10.2 -22.7 -19.2 -3.4 -6.5 -3.3 -17.4 0.2 -24.8 5.1 -10.7 2.1 -12.6 32.7 21.1 20 22.1 27 30.4 26 31 -0.9 0.6 -0.4 0.9 1.5 0.9 1.5 0 2.7 0.5 2.7 1 0 1.7 -10.9 1 -22.8 -1.5z"/>
 </g>
 <g fill="#ffc4c3">
  <path d="M233.2 366.6 c-10.3 -2 -19.8 -5.1 -26.7 -8.9 l-6 -3.2 0.3 -11.5 c0.1 -6.3 0.5 -14.9 0.8 -19.2 l0.6 -7.6 3.6 -0.7 c6.5 -1.2 18.4 -6.7 27.3 -12.7 8.8 -5.9 23.2 -18.6 26.9 -23.8 1.9 -2.7 1.7 -2.6 -7.7 2 -19.3 9.5 -39.2 14.5 -57.8 14.5 -11.6 0 -13.5 -0.2 -17.2 -2.3 -9.1 -4.8 -15.8 -14.6 -21.2 -30.9 -7.8 -23 -10.5 -47.2 -9.9 -88.5 0.2 -16.4 0.6 -30 0.9 -30.3 0.3 -0.2 4.8 0.6 10 1.9 21.7 5.5 57.9 7.4 86.7 4.6 6.7 -0.7 13.3 -0.9 14.6 -0.6 3.1 0.8 5 5.7 7.6 19.5 1.9 10.2 3.9 15.1 6.1 15.1 0.7 0 5.3 -4.2 10.3 -9.4 9.9 -10.2 12.2 -11.4 21.2 -10.3 5.2 0.5 10.8 4.5 13.9 9.8 1.6 2.7 2 5.2 2 12.4 0 8 -0.3 9.7 -3.1 15.5 -5.3 11.2 -11.7 16.9 -20.9 18.5 -5.9 1.1 -7.3 2.1 -8.6 6.4 -3.4 11.4 6 25.6 19.5 29.6 l4.1 1.2 -0.4 28.6 c-0.2 16.8 0.1 31.3 0.7 35.3 0.6 3.8 1.3 12.6 1.6 19.5 l0.6 12.7 -8 4.1 c-4.4 2.3 -12.4 5.4 -17.8 6.8 -8.4 2.3 -12.1 2.6 -28.2 2.9 -12.7 0.2 -20.8 -0.1 -25.8 -1z"/>
 </g>
</svg>